# This file uses centimeters as units for non-parametric coordinates.

mtllib stone02.mtl
g default
v 71.660645 -775.584595 1632.993164
v 148.503906 -785.058838 1697.712524
v 100.008789 -769.154541 1666.648315
v 68.752197 -718.461609 1410.919556
v 279.485352 -698.085510 1615.794189
v 280.931885 -782.455872 1377.927124
v 330.313477 -771.363708 1548.109619
v 188.328613 -712.430359 1693.157959
v 44.119629 -785.013916 1595.397217
v 42.678955 -785.710571 1442.945068
v 291.844482 -699.419495 1418.705200
v 242.232910 -683.592163 1391.010620
v 279.070068 -765.611389 1647.917480
v 97.459473 -778.400024 1389.087280
v 55.536377 -731.250366 1579.998413
v 308.542725 -692.903381 1537.060059
v 194.514893 -677.887451 1398.335449
v 303.708252 -768.283691 1396.620361
v 247.138672 -783.661621 1657.312378
v 182.244873 -775.899536 1716.503296
v 35.608643 -770.599731 1594.886353
v 46.758057 -727.807373 1536.604004
v 26.529785 -776.557800 1518.147583
v 163.602783 -700.815063 1384.187378
v 162.420898 -764.315552 1372.526489
v 62.532959 -760.406494 1628.314209
v 313.749756 -783.043030 1529.503052
v 161.535400 -775.490906 1712.643677
v 22.568604 -778.864685 1561.058838
vt 0.364127 0.870463
vt 0.449897 0.905209
vt 0.436034 0.910483
vt 0.461300 0.940530
vt 0.758301 0.989800
vt 0.653986 0.958200
vt 0.742521 0.928869
vt 0.833046 0.798548
vt 0.799924 0.708961
vt 0.926471 0.788740
vt 0.781497 0.811120
vt 0.878153 0.830290
vt 0.877385 0.883321
vt 0.945512 0.973274
vt 0.827585 0.929161
vt 0.944785 0.912055
vt 0.650443 0.898817
vt 0.384735 0.796808
vt 0.410414 0.883647
vt 0.357619 0.853687
vt 0.800564 0.675780
vt 0.887648 0.577298
vt 0.531790 0.915889
vt 0.633962 0.948405
vt 0.528195 0.962192
vt 0.961364 0.866863
vt 0.584334 0.992017
vt 0.838437 0.992903
vt 0.964319 0.624702
vt 0.996394 0.979095
vt 0.995685 0.767841
vt 0.960638 0.792398
vt 0.994317 0.679685
vt 0.723394 0.904670
vt 0.932553 0.815967
vt 0.996194 0.811120
vt 0.497636 0.899741
vt 0.472650 0.931457
vt 0.810978 0.895285
vt 0.839454 0.910608
vt 0.962925 0.891430
vt 0.494090 0.952378
vt 0.904697 0.807448
vt 0.343180 0.844814
vn -0.571913 -0.404041 0.713910
vn -0.593478 0.579932 0.558088
vn -0.624023 -0.433172 0.650352
vn -0.700138 -0.432590 0.568043
vn -0.571913 -0.404041 0.713910
vn -0.624023 -0.433172 0.650352
vn -0.624023 -0.433172 0.650352
vn -0.593478 0.579932 0.558088
vn -0.700138 -0.432590 0.568043
vn 0.783682 0.288258 0.550227
vn 0.554851 0.280409 0.783269
vn 0.752714 0.010200 0.658269
vn -0.306526 0.951846 0.005619
vn -0.250817 0.964701 0.080265
vn -0.154061 0.987930 0.016112
vn 0.053700 0.112421 -0.992209
vn -0.086680 -0.066841 -0.993991
vn -0.076695 0.172911 -0.981947
vn 0.896878 0.272895 -0.348049
vn 0.990144 -0.059921 0.126588
vn 0.921302 -0.039826 -0.386803
vn 0.554851 0.280409 0.783269
vn 0.550857 0.206519 0.808645
vn 0.752714 0.010200 0.658269
vn -0.507142 0.536696 0.674362
vn -0.601845 0.359934 0.712903
vn -0.467573 0.341248 0.815430
vn -0.154061 0.987930 0.016112
vn -0.228184 0.967429 0.109609
vn -0.166323 0.979769 0.111305
vn -0.897132 0.439094 -0.048481
vn -0.924459 0.334659 -0.182699
vn -0.947485 0.287307 -0.140451
vn -0.484465 0.078151 -0.871313
vn -0.076695 0.172911 -0.981947
vn -0.086680 -0.066841 -0.993991
vn -0.924459 0.334659 -0.182699
vn -0.939991 0.249932 -0.232274
vn -0.947485 0.287307 -0.140451
vn 0.896878 0.272895 -0.348049
vn 0.961212 0.272611 0.041879
vn 0.990144 -0.059921 0.126588
vn -0.154061 0.987930 0.016112
vn -0.166323 0.979769 0.111305
vn -0.043769 0.993040 0.109339
vn 0.896878 0.272895 -0.348049
vn 0.921302 -0.039826 -0.386803
vn 0.526039 0.329918 -0.783860
vn 0.353125 0.930106 -0.101028
vn 0.166050 0.985152 -0.043630
vn 0.059236 0.996176 0.064227
vn 0.752714 0.010200 0.658269
vn 0.990144 -0.059921 0.126588
vn 0.783682 0.288258 0.550227
vn 0.521427 -0.676549 0.519995
vn 0.990144 -0.059921 0.126588
vn 0.752714 0.010200 0.658269
vn -0.441945 0.047373 -0.895791
vn -0.694383 -0.071759 -0.716018
vn -0.484465 0.078151 -0.871313
vn -0.593478 0.579932 0.558088
vn -0.507142 0.536696 0.674362
vn -0.662404 0.628995 0.406924
vn -0.859392 0.297658 0.415747
vn -0.593478 0.579932 0.558088
vn -0.662404 0.628995 0.406924
vn -0.154061 0.987930 0.016112
vn -0.043769 0.993040 0.109339
vn 0.059236 0.996176 0.064227
vn 0.783682 0.288258 0.550227
vn 0.990144 -0.059921 0.126588
vn 0.961212 0.272611 0.041879
vn 0.166050 0.985152 -0.043630
vn -0.154061 0.987930 0.016112
vn 0.059236 0.996176 0.064227
vn 0.053700 0.112421 -0.992209
vn -0.076695 0.172911 -0.981947
vn 0.052540 0.151198 -0.987106
vn 0.569711 -0.821838 0.003509
vn 0.680923 -0.148384 -0.717165
vn 0.921302 -0.039826 -0.386803
vn 0.680923 -0.148384 -0.717165
vn 0.526039 0.329918 -0.783860
vn 0.921302 -0.039826 -0.386803
vn 0.521427 -0.676549 0.519995
vn 0.752714 0.010200 0.658269
vn 0.550857 0.206519 0.808645
vn -0.601845 0.359934 0.712903
vn -0.571913 -0.404041 0.713910
vn -0.467573 0.341248 0.815430
vn -0.700138 -0.432590 0.568043
vn -0.593478 0.579932 0.558088
vn -0.859392 0.297658 0.415747
vn -0.250817 0.964701 0.080265
vn -0.228184 0.967429 0.109609
vn -0.154061 0.987930 0.016112
vn -0.897132 0.439094 -0.048481
vn -0.900939 0.420795 0.106021
vn -0.662404 0.628995 0.406924
vn -0.900939 0.420795 0.106021
vn -0.859392 0.297658 0.415747
vn -0.662404 0.628995 0.406924
vn -0.859392 0.297658 0.415747
vn -0.900939 0.420795 0.106021
vn -0.700138 -0.432590 0.568043
vn 0.166050 0.985152 -0.043630
vn -0.279916 0.748423 -0.601257
vn -0.154061 0.987930 0.016112
vn -0.306526 0.951846 0.005619
vn -0.154061 0.987930 0.016112
vn -0.279916 0.748423 -0.601257
vn -0.441945 0.047373 -0.895791
vn -0.484465 0.078151 -0.871313
vn -0.086680 -0.066841 -0.993991
vn -0.086680 -0.066841 -0.993991
vn 0.053700 0.112421 -0.992209
vn -0.441945 0.047373 -0.895791
vn -0.571913 -0.404041 0.713910
vn -0.601845 0.359934 0.712903
vn -0.593478 0.579932 0.558088
vn -0.507142 0.536696 0.674362
vn -0.593478 0.579932 0.558088
vn -0.601845 0.359934 0.712903
vn 0.921302 -0.039826 -0.386803
vn 0.990144 -0.059921 0.126588
vn 0.569711 -0.821838 0.003509
vn 0.521427 -0.676549 0.519995
vn 0.569711 -0.821838 0.003509
vn 0.990144 -0.059921 0.126588
vn -0.168940 0.301440 0.938399
vn -0.507142 0.536696 0.674362
vn -0.467573 0.341248 0.815430
vn -0.168940 0.301440 0.938399
vn -0.467573 0.341248 0.815430
vn -0.571913 -0.404041 0.713910
vn -0.900939 0.420795 0.106021
vn -0.897132 0.439094 -0.048481
vn -0.947485 0.287307 -0.140451
vn -0.947485 0.287307 -0.140451
vn -0.939991 0.249932 -0.232274
vn -0.900939 0.420795 0.106021
s off
g stone_low:low
usemtl lambert3SG
f 2/1/1 26/2/2 1/3/3
f 9/4/4 2/1/5 1/3/6
f 1/3/7 26/2/8 9/4/9
f 5/5/10 8/6/11 13/7/12
f 4/8/13 22/9/14 17/10/15
f 6/11/16 25/12/17 24/13/18
f 11/14/19 7/15/20 18/16/21
f 8/6/22 20/17/23 13/7/24
f 8/18/25 3/19/26 28/20/27
f 17/10/28 15/21/29 8/22/30
f 22/23/31 4/24/32 23/25/33
f 4/26/34 24/13/35 25/12/36
f 4/24/37 10/27/38 23/25/39
f 11/14/40 16/28/41 7/15/42
f 17/10/43 8/22/44 5/29/45
f 11/14/46 18/16/47 12/30/48
f 11/31/49 12/32/50 16/33/51
f 13/7/52 7/15/53 5/5/54
f 19/34/55 7/15/56 13/7/57
f 14/35/58 10/36/59 4/26/60
f 26/2/61 8/18/62 15/37/63
f 21/38/64 26/2/65 15/37/66
f 17/10/67 5/29/68 16/33/69
f 5/5/70 7/15/71 16/28/72
f 12/32/73 17/10/74 16/33/75
f 6/11/76 24/13/77 12/39/78
f 27/40/79 6/41/80 18/16/81
f 6/41/82 12/30/83 18/16/84
f 19/34/85 13/7/86 20/17/87
f 3/19/88 2/1/89 28/20/90
f 9/4/91 26/2/92 21/38/93
f 22/9/94 15/21/95 17/10/96
f 22/23/97 29/42/98 15/37/99
f 29/42/100 21/38/101 15/37/102
f 21/38/103 29/42/104 9/4/105
f 12/32/106 24/43/107 17/10/108
f 4/8/109 17/10/110 24/43/111
f 14/35/112 4/26/113 25/12/114
f 25/12/115 6/11/116 14/35/117
f 2/1/118 3/19/119 26/2/120
f 8/18/121 26/2/122 3/19/123
f 18/16/124 7/15/125 27/40/126
f 19/34/127 27/40/128 7/15/129
f 20/44/130 8/18/131 28/20/132
f 20/44/133 28/20/134 2/1/135
f 29/42/136 22/23/137 23/25/138
f 23/25/139 10/27/140 29/42/141
