# This file uses centimeters as units for non-parametric coordinates.

mtllib grass.mtl
g default
v -0.095041 0.000000 -0.013664
v -0.095041 0.000000 0.013664
v -0.034181 1.000000 0.000000
v 0.034181 1.000000 0.000000
v 0.095041 0.000000 -0.013664
v 0.095041 0.000000 0.013664
v -0.132532 0.363184 -0.026857
v -0.132532 0.363184 0.011251
v 0.147231 0.363184 0.011251
v 0.147231 0.363184 -0.026857
v 0.074021 0.662945 -0.029298
v 0.074021 0.662945 -0.001969
v -0.095041 0.662945 -0.001969
v -0.095041 0.662945 -0.029298
vt 0.000000 0.363184
vt 0.000000 0.363184
vt 0.134010 0.662945
vt 0.134010 0.662945
vt 0.738316 0.662945
vt 0.738316 0.662945
vt 1.000000 0.363184
vt 1.000000 0.363184
vt 0.134011 0.000000
vt 0.134010 0.000000
vt 0.813449 0.000000
vt 0.813450 0.000000
vt 0.595909 1.000000
vt 0.351551 1.000000
vn -0.999999 0.001608 0.000000
vn -0.999998 -0.001831 0.000000
vn -0.989997 0.141091 0.000001
vn -0.990041 0.140780 0.000001
vn 0.979560 0.201152 0.000001
vn 0.979706 0.200438 0.000001
vn 0.999590 0.028642 0.000001
vn 0.999408 0.034396 0.000001
vn 0.000000 0.023016 0.999735
vn 0.000000 0.022509 0.999747
vn 0.000000 0.027951 0.999609
vn 0.000000 0.027702 0.999616
vn -0.000000 -0.024379 -0.999703
vn -0.000000 -0.023997 -0.999712
vn -0.000000 0.023059 -0.999734
vn -0.000000 0.022580 -0.999745
vn -0.994714 -0.102683 0.000000
vn -0.994714 -0.102683 0.000000
vn 0.000000 0.006643 0.999978
vn 0.000000 0.006643 0.999978
vn 0.989832 -0.142240 0.000000
vn 0.989832 -0.142240 0.000000
vn 0.000000 -0.036302 -0.999341
vn 0.000000 -0.036302 -0.999341
vn 0.993087 0.117384 0.000002
vn 0.000000 -0.005843 0.999983
vn 0.000000 -0.005843 0.999983
vn -0.984087 0.177690 0.000001
vn -0.000000 0.086596 -0.996244
vn -0.000000 0.086596 -0.996244
s 1
g pCube1
usemtl initialShadingGroup
f 7/1/1 8/2/2 13/3/3 14/4/4
s 2
f 11/5/5 12/6/6 9/7/7 10/8/8
s 3
f 8/2/9 9/7/10 12/6/11 13/3/12
s 4
f 10/8/13 7/1/14 14/4/15 11/5/16
s 1
f 1/9/17 2/10/18 8/2/2 7/1/1
s 3
f 2/10/19 6/11/20 9/7/10 8/2/9
s 2
f 10/8/8 9/7/7 6/11/21 5/12/22
s 4
f 5/12/23 1/9/24 7/1/14 10/8/13
s 2
f 4/13/25 12/6/6 11/5/5
s 3
f 13/3/12 12/6/11 4/13/26 3/14/27
s 1
f 14/4/4 13/3/3 3/14/28
s 4
f 11/5/16 14/4/15 3/14/29 4/13/30
