# This file uses centimeters as units for non-parametric coordinates.

mtllib xrz03.mtl
g default
v -1213.116719 -717.366845 810.911667
v -1241.085591 -789.173241 785.213669
v -1249.140279 -653.152489 749.752244
v -1198.333516 -750.330101 714.885056
v -1221.422383 -710.702050 823.495896
v -1258.174703 -662.571373 772.695115
v -1189.220967 -673.917687 746.605271
v -1184.593282 -737.526513 780.650925
v -1207.540059 -635.091332 789.744431
v -1252.734029 -670.981041 799.826951
v -1229.439473 -687.382164 734.243943
v -1207.825948 -789.176171 765.895798
v -1199.060323 -743.949730 749.289841
v -1225.449971 -740.388024 742.237595
v -1206.270528 -665.531273 810.842576
v -1214.031758 -754.071556 744.782273
v -1218.993428 -720.782616 722.304978
v -1227.341084 -651.271325 807.502488
v -1241.159078 -634.022301 788.085496
v -1218.873799 -747.986229 709.946824
v -1202.714131 -711.029381 688.412156
v -1238.088277 -720.581932 803.219529
v -1241.146626 -720.044518 836.812546
v -1186.661397 -693.807885 704.217087
v -1225.131368 -719.060143 836.283738
v -1198.838399 -683.418969 725.398728
v -1205.316915 -676.234032 698.323289
v -1205.098897 -633.016442 765.830613
v -1236.731099 -678.134728 856.296677
v -1228.454122 -667.685570 827.056199
v -1221.608418 -668.444725 845.606003
v -1182.178243 -667.584984 770.038865
v -1245.272115 -713.441063 823.411423
v -1229.301778 -789.176171 753.677292
v -1245.439839 -678.253868 825.398972
v -1230.972676 -789.176171 791.035691
v -1211.381612 -674.001244 733.360642
v -1251.252583 -671.115197 840.976853
v -1228.693623 -626.803795 771.097703
v -1225.365987 -729.208825 807.539353
v -1199.712911 -730.027184 723.501511
v -1228.388448 -703.704125 815.472947
v -1223.274922 -681.102379 711.793503
v -1217.549581 -701.285241 691.140427
v -1225.996358 -638.761498 747.732224
v -1212.573262 -789.176171 786.788865
v -1206.753438 -728.215477 740.419968
v -1243.141011 -789.176171 763.393601
vt 0.806541 0.960227
vt 0.832062 0.950001
vt 0.807315 0.965256
vt 0.784473 0.995720
vt 0.798463 0.982884
vt 0.802034 0.993151
vt 0.861684 0.969159
vt 0.807644 0.975067
vt 0.775210 0.976193
vt 0.746670 0.976781
vt 0.746273 0.957860
vt 0.858610 0.958035
vt 0.836840 0.954974
vt 0.721943 0.958281
vt 0.736385 0.951780
vt 0.732971 0.965374
vt 0.777461 0.991350
vt 0.746622 0.987046
vt 0.865569 0.979108
vt 0.874340 0.985018
vt 0.858599 0.997014
vt 0.768894 0.956563
vt 0.742224 0.996226
vt 0.724094 0.985163
vt 0.876123 0.962972
vt 0.880594 0.973276
vt 0.852114 0.989284
vt 0.828742 0.987935
vt 0.769298 0.996226
vt 0.799565 0.972833
vt 0.833395 0.997014
vt 0.807339 0.982436
vt 0.821899 0.991756
vt 0.629773 0.915534
vt 0.620366 0.929309
vt 0.621067 0.919641
vt 0.844148 0.946908
vt 0.869203 0.949292
vt 0.614633 0.914067
vt 0.612027 0.905324
vt 0.626751 0.906112
vt 0.628940 0.941011
vt 0.614386 0.935311
vt 0.633632 0.927909
vt 0.626861 0.896247
vt 0.649166 0.901257
vt 0.762386 0.948526
vt 0.648408 0.912438
vt 0.651338 0.933611
vt 0.649627 0.924434
vt 0.759125 0.905864
vt 0.759270 0.915698
vt 0.744577 0.912264
vt 0.752468 0.926016
vt 0.762633 0.935839
vt 0.751116 0.939810
vt 0.750859 0.918261
vt 0.659284 0.920155
vt 0.646789 0.919043
vt 0.739434 0.905864
vt 0.732219 0.925971
vt 0.730719 0.975084
vt 0.721447 0.970161
vt 0.724457 0.929859
vt 0.740063 0.932355
vt 0.738269 0.928581
vt 0.733109 0.933910
vt 0.747216 0.947903
vt 0.802600 0.965104
vt 0.776255 0.954353
vt 0.766145 0.943564
vt 0.653852 0.940890
vn -0.490040 -0.188419 0.851093
vn -0.442364 -0.208765 0.872199
vn -0.947970 -0.146492 0.282654
vn 0.481603 -0.387609 -0.786014
vn 0.840892 -0.445704 -0.307001
vn 0.453405 -0.399147 -0.796935
vn -0.947970 -0.146492 0.282654
vn -0.992925 0.024286 -0.116234
vn -0.950605 -0.132635 -0.280639
vn 0.933673 -0.198983 0.297758
vn 0.968352 0.161724 0.190105
vn 0.650035 0.161701 0.742500
vn -0.889497 0.020210 0.456495
vn -0.947970 -0.146492 0.282654
vn -0.645977 -0.165042 0.745302
vn -0.001091 0.830406 0.557157
vn 0.068860 0.499597 0.863517
vn 0.579288 0.662878 0.474360
vn 0.858607 -0.226546 -0.459860
vn 0.801735 0.120502 -0.585406
vn 0.933673 -0.198983 0.297758
vn -0.798391 0.155638 -0.581677
vn -0.383804 0.509105 -0.770394
vn -0.144853 0.129747 -0.980909
vn 0.590153 -0.150609 0.793118
vn 0.933673 -0.198983 0.297758
vn 0.650035 0.161701 0.742500
vn 0.840892 -0.445704 -0.307001
vn 0.858607 -0.226546 -0.459860
vn 0.933673 -0.198983 0.297758
vn 0.968352 0.161724 0.190105
vn 0.579288 0.662878 0.474360
vn 0.650035 0.161701 0.742500
vn 0.501920 0.201668 -0.841075
vn 0.407821 0.608612 -0.680642
vn 0.801735 0.120502 -0.585406
vn -0.992925 0.024286 -0.116234
vn -0.947970 -0.146492 0.282654
vn -0.889497 0.020210 0.456495
vn -0.796550 0.566934 0.209986
vn -0.636979 0.719170 -0.277583
vn -0.798391 0.155638 -0.581677
vn -0.798391 0.155638 -0.581677
vn -0.456968 -0.068204 -0.886864
vn -0.558133 -0.121375 -0.820826
vn 0.607406 -0.106456 -0.787226
vn 0.501920 0.201668 -0.841075
vn 0.801735 0.120502 -0.585406
vn 0.933673 -0.198983 0.297758
vn 0.595761 -0.364740 0.715565
vn 0.840892 -0.445704 -0.307001
vn 0.840892 -0.445704 -0.307001
vn 0.481603 -0.387609 -0.786014
vn 0.858607 -0.226546 -0.459860
vn 0.009696 -0.144277 -0.989490
vn -0.558133 -0.121375 -0.820826
vn -0.456968 -0.068204 -0.886864
vn -0.514370 -0.157073 -0.843061
vn -0.558133 -0.121375 -0.820826
vn -0.051682 -0.224109 -0.973193
vn 0.779892 0.133827 0.611440
vn -0.998959 -0.023377 0.039183
vn 0.102367 0.992705 -0.063705
vn -0.889497 0.020210 0.456495
vn -0.578880 -0.041309 0.814366
vn -0.468529 0.276921 0.838925
vn 0.888900 -0.425075 0.170786
vn 0.333479 -0.941012 0.057336
vn 0.619081 -0.672298 -0.405899
vn -0.959239 -0.139511 -0.245757
vn -0.767298 -0.641269 -0.005368
vn -0.998959 -0.023377 0.039183
vn -0.743898 0.146000 0.652151
vn -0.998959 -0.023377 0.039183
vn 0.779892 0.133827 0.611440
vn 0.063016 -0.774339 -0.629625
vn 0.619081 -0.672298 -0.405899
vn 0.333479 -0.941012 0.057336
vn -0.889497 0.020210 0.456495
vn -0.796550 0.566934 0.209986
vn -0.992925 0.024286 -0.116234
vn -0.889497 0.020210 0.456495
vn -0.468529 0.276921 0.838925
vn -0.796550 0.566934 0.209986
vn 0.063016 -0.774339 -0.629625
vn 0.713228 -0.221873 -0.664890
vn 0.619081 -0.672298 -0.405899
vn -0.743898 0.146000 0.652151
vn -0.959239 -0.139511 -0.245757
vn -0.998959 -0.023377 0.039183
vn 0.178942 0.015648 0.983735
vn 0.590153 -0.150609 0.793118
vn 0.650035 0.161701 0.742500
vn 0.713228 -0.221873 -0.664890
vn 0.980394 0.110956 -0.162839
vn 0.619081 -0.672298 -0.405899
vn -0.789946 0.002913 -0.613169
vn -0.959239 -0.139511 -0.245757
vn -0.859720 0.428275 0.278322
vn 0.484444 -0.826151 0.287729
vn 0.821974 -0.484153 0.299924
vn 0.542998 -0.541677 0.641669
vn -0.578880 -0.041309 0.814366
vn -0.889497 0.020210 0.456495
vn -0.645977 -0.165042 0.745302
vn 0.055361 0.377751 -0.924251
vn -0.847692 -0.468097 -0.249607
vn -0.948290 -0.111908 -0.297024
vn 0.821974 -0.484153 0.299924
vn 0.987700 0.149304 0.046437
vn 0.542998 -0.541677 0.641669
vn 0.980394 0.110956 -0.162839
vn 0.713228 -0.221873 -0.664890
vn 0.142412 0.843946 -0.517179
vn 0.779892 0.133827 0.611440
vn 0.310529 0.401274 0.861714
vn -0.743898 0.146000 0.652151
vn 0.484444 -0.826151 0.287729
vn 0.542998 -0.541677 0.641669
vn 0.064660 -0.641394 0.764482
vn 0.987700 0.149304 0.046437
vn 0.836993 0.392889 0.380896
vn 0.542998 -0.541677 0.641669
vn -0.796550 0.566934 0.209986
vn -0.798391 0.155638 -0.581677
vn -0.992925 0.024286 -0.116234
vn 0.980394 0.110956 -0.162839
vn 0.310529 0.401274 0.861714
vn 0.779892 0.133827 0.611440
vn 0.980394 0.110956 -0.162839
vn 0.142412 0.843946 -0.517179
vn 0.310529 0.401274 0.861714
vn 0.310529 0.401274 0.861714
vn -0.859720 0.428275 0.278322
vn -0.743898 0.146000 0.652151
vn -0.959239 -0.139511 -0.245757
vn -0.743898 0.146000 0.652151
vn -0.859720 0.428275 0.278322
vn 0.611456 0.718697 -0.331054
vn 0.579288 0.662878 0.474360
vn 0.968352 0.161724 0.190105
vn -0.001091 0.830406 0.557157
vn 0.579288 0.662878 0.474360
vn 0.126277 0.990503 0.054383
vn -0.099971 -0.042521 0.994081
vn 0.064660 -0.641394 0.764482
vn 0.542998 -0.541677 0.641669
vn 0.055361 0.377751 -0.924251
vn -0.948290 -0.111908 -0.297024
vn -0.594928 0.286611 -0.750943
vn 0.512221 0.642606 -0.569813
vn 0.836993 0.392889 0.380896
vn 0.987700 0.149304 0.046437
vn -0.099971 -0.042521 0.994081
vn -0.884806 0.300045 0.356498
vn -0.889798 -0.368701 0.268923
vn -0.099971 -0.042521 0.994081
vn 0.542998 -0.541677 0.641669
vn 0.836993 0.392889 0.380896
vn -0.099971 -0.042521 0.994081
vn 0.836993 0.392889 0.380896
vn -0.884806 0.300045 0.356498
vn 0.801735 0.120502 -0.585406
vn 0.611456 0.718697 -0.331054
vn 0.968352 0.161724 0.190105
vn 0.801735 0.120502 -0.585406
vn 0.968352 0.161724 0.190105
vn 0.933673 -0.198983 0.297758
vn -0.847692 -0.468097 -0.249607
vn -0.889798 -0.368701 0.268923
vn -0.948290 -0.111908 -0.297024
vn -0.884806 0.300045 0.356498
vn -0.948290 -0.111908 -0.297024
vn -0.889798 -0.368701 0.268923
vn 0.650035 0.161701 0.742500
vn 0.068860 0.499597 0.863517
vn 0.178942 0.015648 0.983735
vn 0.579288 0.662878 0.474360
vn 0.068860 0.499597 0.863517
vn 0.650035 0.161701 0.742500
vn -0.514370 -0.157073 -0.843061
vn -0.950605 -0.132635 -0.280639
vn -0.558133 -0.121375 -0.820826
vn 0.512221 0.642606 -0.569813
vn 0.055361 0.377751 -0.924251
vn -0.594928 0.286611 -0.750943
vn -0.884806 0.300045 0.356498
vn 0.836993 0.392889 0.380896
vn 0.512221 0.642606 -0.569813
vn 0.203363 -0.307827 0.929455
vn 0.590153 -0.150609 0.793118
vn -0.009810 -0.264480 0.964341
vn 0.933673 -0.198983 0.297758
vn 0.590153 -0.150609 0.793118
vn 0.595761 -0.364740 0.715565
vn -0.456968 -0.068204 -0.886864
vn -0.798391 0.155638 -0.581677
vn -0.144853 0.129747 -0.980909
vn -0.144853 0.129747 -0.980909
vn 0.009696 -0.144277 -0.989490
vn -0.456968 -0.068204 -0.886864
vn -0.884806 0.300045 0.356498
vn 0.512221 0.642606 -0.569813
vn -0.594928 0.286611 -0.750943
vn -0.884806 0.300045 0.356498
vn -0.594928 0.286611 -0.750943
vn -0.948290 -0.111908 -0.297024
vn 0.611456 0.718697 -0.331054
vn 0.126277 0.990503 0.054383
vn 0.579288 0.662878 0.474360
vn 0.801735 0.120502 -0.585406
vn 0.407821 0.608612 -0.680642
vn 0.611456 0.718697 -0.331054
vn -0.645977 -0.165042 0.745302
vn -0.947970 -0.146492 0.282654
vn -0.442364 -0.208765 0.872199
vn -0.552221 -0.832878 -0.036950
vn -0.889798 -0.368701 0.268923
vn -0.847692 -0.468097 -0.249607
vn 0.980394 0.110956 -0.162839
vn 0.779892 0.133827 0.611440
vn 0.619081 -0.672298 -0.405899
vn 0.619081 -0.672298 -0.405899
vn 0.779892 0.133827 0.611440
vn 0.888900 -0.425075 0.170786
vn 0.512221 0.642606 -0.569813
vn 0.987700 0.149304 0.046437
vn 0.055361 0.377751 -0.924251
vn 0.987700 0.149304 0.046437
vn 0.821974 -0.484153 0.299924
vn 0.055361 0.377751 -0.924251
vn -0.789946 0.002913 -0.613169
vn -0.859720 0.428275 0.278322
vn 0.142412 0.843946 -0.517179
vn 0.142412 0.843946 -0.517179
vn -0.859720 0.428275 0.278322
vn 0.310529 0.401274 0.861714
vn -0.297425 -0.190924 -0.935461
vn -0.959239 -0.139511 -0.245757
vn -0.789946 0.002913 -0.613169
vn -0.789946 0.002913 -0.613169
vn 0.142412 0.843946 -0.517179
vn -0.297425 -0.190924 -0.935461
vn 0.407821 0.608612 -0.680642
vn 0.126277 0.990503 0.054383
vn 0.611456 0.718697 -0.331054
vn -0.636979 0.719170 -0.277583
vn -0.383804 0.509105 -0.770394
vn -0.798391 0.155638 -0.581677
vn 0.595761 -0.364740 0.715565
vn 0.590153 -0.150609 0.793118
vn 0.203363 -0.307827 0.929455
vn 0.607406 -0.106456 -0.787226
vn 0.801735 0.120502 -0.585406
vn 0.858607 -0.226546 -0.459860
vn 0.102367 0.992705 -0.063705
vn 0.888900 -0.425075 0.170786
vn 0.779892 0.133827 0.611440
vn -0.798391 0.155638 -0.581677
vn -0.558133 -0.121375 -0.820826
vn -0.950605 -0.132635 -0.280639
vn -0.992925 0.024286 -0.116234
vn -0.798391 0.155638 -0.581677
vn -0.950605 -0.132635 -0.280639
s off
g polySurface4 xrzd_low:Group56589
usemtl lambert4SG
f 36/1/1 40/2/2 2/3/3
f 16/4/4 12/5/5 34/6/6
f 2/3/7 6/7/8 48/8/9
f 8/9/10 32/10/11 15/11/12
f 10/12/13 2/3/14 22/13/15
f 19/14/16 18/15/17 9/16/18
f 13/17/19 7/18/20 8/9/21
f 3/19/22 45/20/23 37/21/24
f 1/22/25 8/9/26 15/11/27
f 12/5/28 13/17/29 8/9/30
f 32/10/31 9/16/32 15/11/33
f 37/23/34 45/24/35 7/18/36
f 6/7/37 2/3/38 10/12/39
f 19/25/40 39/26/41 3/19/42
f 3/19/43 11/27/44 14/28/45
f 47/29/46 37/23/47 7/18/48
f 8/9/49 46/30/50 12/5/51
f 12/5/52 16/4/53 13/17/54
f 47/31/55 14/28/56 11/27/57
f 34/32/58 14/28/59 16/33/60
f 41/34/61 14/35/62 47/36/63
f 10/12/64 42/37/65 18/38/66
f 13/39/67 16/40/68 4/41/69
f 20/42/70 16/43/71 14/35/72
f 17/44/73 14/35/74 41/34/75
f 20/45/76 4/41/77 16/40/78
f 10/12/79 19/25/80 6/7/81
f 10/12/82 18/38/83 19/25/84
f 20/45/85 21/46/86 4/41/87
f 17/44/88 20/42/89 14/35/90
f 42/47/91 1/22/92 15/11/93
f 21/46/94 24/48/95 4/41/96
f 44/49/97 20/42/98 43/50/99
f 40/51/100 1/52/101 25/53/102
f 42/37/103 10/12/104 22/13/105
f 42/54/106 22/55/107 33/56/108
f 1/52/109 5/57/110 25/53/111
f 24/48/112 21/46/113 27/58/114
f 41/34/115 26/59/116 17/44/117
f 40/51/118 25/53/119 23/60/120
f 5/57/121 31/61/122 25/53/123
f 19/25/124 3/19/125 6/7/126
f 24/48/127 26/59/128 41/34/129
f 24/48/130 27/58/131 26/59/132
f 26/59/133 43/50/134 17/44/135
f 20/42/136 17/44/137 43/50/138
f 28/62/139 9/16/140 32/10/141
f 19/14/142 9/16/143 39/63/144
f 29/64/145 23/60/146 25/53/147
f 42/54/148 33/56/149 35/65/150
f 30/66/151 31/61/152 5/57/153
f 29/64/154 38/67/155 23/68/156
f 29/64/157 25/53/158 31/61/159
f 29/64/160 31/61/161 38/67/162
f 7/18/163 28/62/164 32/10/165
f 7/18/166 32/10/167 8/9/168
f 22/55/169 23/68/170 33/56/171
f 38/67/172 33/56/173 23/68/174
f 15/11/175 18/15/176 42/47/177
f 9/16/178 18/15/179 15/11/180
f 34/32/181 48/8/182 14/28/183
f 30/66/184 42/54/185 35/65/186
f 38/67/187 31/61/188 30/66/189
f 36/69/190 1/22/191 40/70/192
f 8/9/193 1/22/194 46/30/195
f 11/27/196 3/19/197 37/21/198
f 37/21/199 47/31/200 11/27/201
f 38/67/202 30/66/203 35/65/204
f 38/67/205 35/65/206 33/56/207
f 28/62/208 39/63/209 9/16/210
f 7/18/211 45/24/212 28/62/213
f 22/13/214 2/3/215 40/2/216
f 40/71/217 23/68/218 22/55/219
f 24/48/220 41/34/221 4/41/222
f 4/41/223 41/34/224 13/39/225
f 30/66/226 5/57/227 42/54/228
f 5/57/229 1/52/230 42/54/231
f 44/49/232 43/50/233 27/58/234
f 27/58/235 43/50/236 26/59/237
f 21/72/238 20/42/239 44/49/240
f 44/49/241 27/58/242 21/72/243
f 45/24/244 39/63/245 28/62/246
f 39/26/247 45/20/248 3/19/249
f 46/30/250 1/22/251 36/69/252
f 47/29/253 7/18/254 13/17/255
f 47/36/256 13/39/257 41/34/258
f 3/19/259 14/28/260 48/8/261
f 6/7/262 3/19/263 48/8/264
