# This file uses centimeters as units for non-parametric coordinates.

mtllib doumiao.mtl
g default
v 68.576424 114.687859 36.010315
v 68.576004 114.687859 35.678085
v 68.510971 114.722115 35.844158
v 68.992584 114.808159 35.858246
v 69.472267 115.613258 36.848412
v 69.959007 115.878769 37.030266
v 68.936684 114.766991 36.013252
v 68.946922 114.766869 35.695633
v 70.024429 115.519775 37.126213
v 68.728249 114.911537 35.844650
v 69.011101 111.455513 35.694969
v 69.011101 111.455513 35.994324
v 69.310463 111.455513 35.994324
v 69.310463 111.455513 35.694969
v 68.575943 106.236710 35.681366
v 68.575943 106.236710 36.007935
v 68.902519 106.236710 36.007935
v 68.902519 106.236710 35.681366
v 67.018967 114.530884 35.840401
v 66.700401 115.602356 35.840149
v 67.381882 114.878601 35.840126
v 67.806892 114.720428 35.840652
v 69.884178 115.583939 35.889065
v 70.316589 115.816444 36.254150
v 69.914368 116.140640 37.895515
v 69.165672 115.631180 37.818779
v 70.869720 115.770226 37.205254
v 67.923073 114.496849 36.769791
v 67.923103 114.496872 34.910835
v 67.303055 114.904488 36.884987
v 67.303024 114.904366 34.795975
vt 0.032432 0.357668
vt 0.030854 0.358597
vt 0.041389 0.359104
vt 0.040413 0.359439
vt 0.012339 0.362954
vt 0.011268 0.364185
vt 0.032432 0.357669
vt 0.011269 0.364186
vt 0.041372 0.359109
vt 0.008271 0.361033
vt 0.003087 0.369672
vt 0.080022 0.364936
vt 0.068936 0.362828
vt 0.072512 0.365299
vt 0.056886 0.363843
vt 0.046963 0.359496
vt 0.067051 0.367848
vt 0.061049 0.363702
vt 0.066641 0.363472
vt 0.047011 0.359524
vt 0.046952 0.360116
vt 0.067657 0.365789
vt 0.041670 0.360924
vt 0.051268 0.333761
vt 0.047203 0.333761
vt 0.051327 0.333739
vt 0.047241 0.333747
vt 0.041295 0.292737
vt 0.041291 0.292736
vt 0.045753 0.292732
vt 0.045729 0.292737
vn 0.143604 0.989635 0.000162
vn 0.701120 0.713044 -0.000027
vn 0.700685 0.712558 -0.036083
vn 0.141381 0.978426 0.150648
vn 0.143604 0.989635 0.000162
vn 0.141381 0.978426 0.150648
vn -0.371131 0.543231 0.753102
vn -0.536487 0.843909 0.000448
vn 0.700643 0.712602 0.036030
vn 0.701120 0.713044 -0.000027
vn 0.143604 0.989635 0.000162
vn 0.142557 0.978309 -0.150294
vn 0.142557 0.978309 -0.150294
vn 0.143604 0.989635 0.000162
vn -0.536487 0.843909 0.000448
vn -0.062109 0.670742 -0.739086
vn -0.856913 -0.515462 -0.000005
vn -0.801570 -0.482110 0.353632
vn -0.958531 -0.284988 -0.000016
vn -0.856913 -0.515462 -0.000005
vn -0.801514 -0.482199 -0.353638
vn 0.072679 -0.936917 -0.341914
vn 0.077172 -0.997018 0.000017
vn 0.072679 -0.936917 -0.341914
vn -0.311948 -0.377794 -0.871757
vn -0.525767 -0.850625 0.002597
vn 0.072363 -0.936938 0.341921
vn -0.801570 -0.482110 0.353632
vn 0.077172 -0.997018 0.000017
vn 0.072363 -0.936938 0.341921
vn 0.077172 -0.997018 0.000017
vn 0.116548 -0.584278 0.803142
vn 0.701120 0.713044 -0.000027
vn 0.781859 0.623455 -0.000037
vn 0.700685 0.712558 -0.036083
vn 0.701120 0.713044 -0.000027
vn 0.700643 0.712602 0.036030
vn 0.781859 0.623455 -0.000037
vn -0.856913 -0.515462 -0.000005
vn -0.958531 -0.284988 -0.000016
vn -0.801514 -0.482199 -0.353638
vn 0.256383 -0.938392 0.231709
vn 0.415193 -0.882088 0.222565
vn 0.430355 -0.889945 -0.150971
vn 0.657061 -0.723762 0.210808
vn 0.578180 -0.684568 0.443931
vn 0.772671 -0.634580 0.016951
vn 0.415193 -0.882088 0.222565
vn 0.341361 -0.749728 0.566904
vn 0.578180 -0.684568 0.443931
vn 0.415193 -0.882088 0.222565
vn 0.256383 -0.938392 0.231709
vn 0.341361 -0.749728 0.566904
vn -0.587889 0.786260 -0.190215
vn -0.531150 0.824405 -0.195540
vn 0.250263 0.625072 -0.739360
vn 0.200319 0.978657 -0.045852
vn -0.153882 0.972972 -0.172181
vn 0.145681 0.977620 -0.151776
vn -0.110743 0.989197 -0.096045
vn -0.238549 0.671338 0.701712
vn -0.641025 0.745113 -0.184101
vn -0.587889 0.786260 -0.190215
vn 0.200319 0.978657 -0.045852
vn -0.153882 0.972972 -0.172181
vn -0.110743 0.989197 -0.096045
vn -0.531150 0.824405 -0.195540
vn -0.587889 0.786260 -0.190215
vn 0.278953 -0.576368 -0.768105
vn 0.695359 -0.717614 -0.038795
vn 0.657061 -0.723762 0.210808
vn 0.772671 -0.634580 0.016951
vn -0.153882 0.972972 -0.172181
vn -0.197421 0.947944 -0.249856
vn 0.145681 0.977620 -0.151776
vn 0.657061 -0.723762 0.210808
vn 0.695359 -0.717614 -0.038795
vn 0.430355 -0.889945 -0.150971
vn -0.587889 0.786260 -0.190215
vn -0.641025 0.745113 -0.184101
vn -0.197421 0.947944 -0.249856
vn -0.153882 0.972972 -0.172181
vn 0.140120 0.662285 0.736033
vn -0.541169 0.591115 0.598097
vn -0.371131 0.543231 0.753102
vn 0.440407 0.694601 -0.568834
vn 0.250263 0.625072 -0.739360
vn -0.368063 0.545144 -0.753225
vn 0.200319 0.978657 -0.045852
vn 0.250263 0.625072 -0.739360
vn 0.529783 0.848097 0.007884
vn 0.200319 0.978657 -0.045852
vn 0.405603 0.710884 0.574570
vn 0.140120 0.662285 0.736033
vn -0.536487 0.843909 0.000448
vn -0.371131 0.543231 0.753102
vn -0.676463 0.736476 0.000246
vn -0.536487 0.843909 0.000448
vn -0.539843 0.592715 -0.597711
vn -0.368063 0.545144 -0.753225
vn -0.311948 -0.377794 -0.871757
vn 0.528482 -0.260362 -0.808033
vn 0.695996 0.009289 -0.717985
vn -0.684901 -0.022808 -0.728279
vn 0.695996 0.009289 -0.717985
vn 0.528482 -0.260362 -0.808033
vn 0.772671 -0.634580 0.016951
vn 0.999861 0.012981 0.010454
vn 0.387032 -0.291255 0.874858
vn -0.314697 -0.377942 0.870704
vn -0.684406 -0.022618 0.728751
vn 0.677948 0.005364 0.735091
vn -0.684901 -0.022808 -0.728279
vn -0.999286 -0.037741 0.001658
vn -0.525767 -0.850625 0.002597
vn -0.311948 -0.377794 -0.871757
vn -0.704977 0.066876 -0.706070
vn -0.995787 0.091697 0.000000
vn -0.999286 -0.037741 0.001658
vn -0.684901 -0.022808 -0.728279
vn 0.677948 0.005364 0.735091
vn -0.684406 -0.022618 0.728751
vn -0.704977 0.066876 0.706070
vn 0.705590 -0.054934 0.706488
vn 0.996765 -0.080371 0.000000
vn 0.705590 -0.054934 -0.706488
vn 0.695996 0.009289 -0.717985
vn 0.999861 0.012981 0.010454
vn -0.684901 -0.022808 -0.728279
vn 0.695996 0.009289 -0.717985
vn 0.705590 -0.054934 -0.706488
vn -0.704977 0.066876 -0.706070
vn 0.705590 -0.054934 -0.706488
vn -0.704977 0.066876 -0.706070
vn 0.705590 -0.054934 -0.706488
vn -0.704977 0.066876 -0.706070
vn -0.684901 -0.022808 -0.728279
vn 0.695996 0.009289 -0.717985
vn 0.705590 -0.054934 -0.706488
vn -0.704977 0.066876 -0.706070
vn 0.705590 -0.054934 -0.706488
vn -0.704977 0.066876 -0.706070
vn -0.684901 -0.022808 -0.728279
vn 0.695996 0.009289 -0.717985
vn 0.705590 -0.054934 -0.706488
vn -0.704977 0.066876 -0.706070
vn 0.705590 -0.054934 -0.706488
vn -0.704977 0.066876 -0.706070
vn 0.705590 -0.054934 -0.706488
vn -0.704977 0.066876 -0.706070
vn -0.684901 -0.022808 -0.728279
vn 0.695996 0.009289 -0.717985
vn 0.705590 -0.054934 -0.706488
vn -0.704977 0.066876 -0.706070
vn -0.684901 -0.022808 -0.728279
vn 0.695996 0.009289 -0.717985
vn 0.705590 -0.054934 -0.706488
vn -0.704977 0.066876 -0.706070
vn 0.705590 -0.054934 -0.706488
vn -0.704977 0.066876 -0.706070
vn 0.705590 -0.054934 -0.706488
vn -0.704977 0.066876 -0.706070
vn 0.695996 0.009289 -0.717985
vn 0.705590 -0.054934 -0.706488
vn -0.704977 0.066876 -0.706070
vn -0.684901 -0.022808 -0.728279
vn 0.695996 0.009289 -0.717985
vn 0.705590 -0.054934 -0.706488
vn -0.704977 0.066876 -0.706070
vn 0.705590 -0.054934 -0.706488
vn -0.704977 0.066876 -0.706070
vn 0.695996 0.009289 -0.717985
vn 0.705590 -0.054934 -0.706488
vn -0.704977 0.066876 -0.706070
vn -0.684901 -0.022808 -0.728279
vn 0.695996 0.009289 -0.717985
vn 0.705590 -0.054934 -0.706488
vn -0.704977 0.066876 -0.706070
vn -0.684901 -0.022808 -0.728279
vn 0.695996 0.009289 -0.717985
vn 0.705590 -0.054934 -0.706488
vn -0.704977 0.066876 -0.706070
vn 0.705590 -0.054934 -0.706488
vn -0.704977 0.066876 -0.706070
vn -0.684901 -0.022808 -0.728279
vn 0.695996 0.009289 -0.717985
vn 0.705590 -0.054934 -0.706488
vn -0.704977 0.066876 -0.706070
vn 0.705590 -0.054934 -0.706488
vn -0.704977 0.066876 -0.706070
vn 0.705590 -0.054934 -0.706488
vn -0.704977 0.066876 -0.706070
s off
g dm:polySurface1
usemtl initialShadingGroup
f 22/2/1 21/5/2 30/8/3 28/1/4
f 22/2/5 28/1/6 1/3/7 3/4/8
f 31/6/9 21/5/10 22/2/11 29/7/12
f 29/7/13 22/2/14 3/4/15 2/9/16
f 19/10/17 30/8/18 20/11/19
f 19/10/20 31/6/21 29/7/22
f 19/10/23 29/7/24 2/9/25 1/3/26
f 28/1/27 30/8/28 19/10/29
f 28/1/30 19/10/31 1/3/32
f 21/5/33 20/11/34 30/8/35
f 21/5/36 31/6/37 20/11/38
f 19/10/39 20/11/40 31/6/41
f 27/12/42 9/13/43 24/14/44
f 9/13/45 26/15/46 7/16/47
f 9/13/48 25/17/49 26/15/50
f 9/13/51 27/12/52 25/17/53
f 5/18/54 23/19/55 8/20/56 4/21/57
f 6/22/58 27/12/59 24/14/60
f 7/16/61 26/15/62 5/18/63 4/21/64
f 6/22/65 24/14/66 23/19/67 5/18/68
f 8/20/69 23/19/70 9/13/71 7/16/72
f 6/22/73 25/17/74 27/12/75
f 9/13/76 23/19/77 24/14/78
f 5/18/79 26/15/80 25/17/81 6/22/82
f 7/16/83 10/23/84 1/3/85
f 10/23/86 8/20/87 2/9/88
f 4/21/89 8/20/90 10/23/91
f 4/21/92 10/23/93 7/16/94
f 3/4/95 1/3/96 10/23/97
f 3/4/98 10/23/99 2/9/100
f 2/9/101 8/20/102 14/24/103 11/25/104
f 14/24/105 8/20/106 7/16/107 13/26/108
f 7/16/109 1/3/110 12/27/111 13/26/112
f 11/25/113 12/27/114 1/3/115 2/9/116
f 15/28/117 16/29/118 12/27/119 11/25/120
f 13/26/121 12/27/122 16/29/123 17/30/124
f 17/30/125 18/31/126 14/24/127 13/26/128
f 11/25/129 14/24/130 18/31/131 15/28/132
