# This file uses meters as units for non-parametric coordinates.

mtllib grass_02.mtl
g default
v 57.837811 107.002663 50.472557
v 59.754807 107.002663 47.377689
v 57.479027 131.577499 48.109184
v 55.203247 107.002663 48.840679
v 57.120247 107.002663 45.745811
v 56.486916 115.099579 49.609680
v 57.520504 115.099579 47.941017
v 56.100033 115.099579 47.061157
v 55.066441 115.099579 48.729820
v 59.412151 107.002663 41.282913
v 61.032257 107.002663 42.747818
v 60.985210 120.600960 41.171520
v 60.938164 107.002663 39.595226
v 62.558270 107.002663 41.060131
v 60.137066 111.779991 40.610909
v 61.010578 111.779991 41.400742
v 61.833355 111.779991 40.490791
v 60.959843 111.779991 39.700958
v 62.207481 107.002663 41.793003
v 61.930538 107.002663 43.864235
v 63.196625 125.712303 42.979393
v 64.462708 107.002663 42.094547
v 64.185768 107.002663 44.165779
v 62.663315 115.258232 42.775002
v 62.513992 115.258232 43.891754
v 63.729946 115.258232 44.054337
v 63.879265 115.258232 42.937592
v 56.640053 107.002663 39.016968
v 56.363110 107.002663 41.088200
v 57.629196 125.712303 40.203358
v 58.895283 107.002663 39.318516
v 58.618340 107.002663 41.389748
v 57.095886 115.258232 39.998970
v 56.946564 115.258232 41.115715
v 58.162518 115.258232 41.278305
v 58.311836 115.258232 40.161552
v 53.248234 107.002663 45.352245
v 54.868340 107.002663 46.817150
v 54.821293 120.600960 45.240856
v 54.774246 107.002663 43.664562
v 56.394352 107.002663 45.129463
v 53.973148 111.779991 44.680244
v 54.846661 111.779991 45.470078
v 55.669437 111.779991 44.560127
v 54.795925 111.779991 43.770294
v 59.413181 107.002663 46.314159
v 61.330181 107.002663 43.219292
v 59.054401 135.504913 43.950787
v 56.778622 107.002663 44.682281
v 58.695618 107.002663 41.587414
v 58.062290 119.716705 45.451279
v 59.095879 119.716705 43.782616
v 57.675404 119.716705 42.902756
v 56.641815 119.716705 44.571419
v 53.512989 107.002663 43.517517
v 57.153469 107.002663 43.517517
v 55.333229 129.790131 42.379864
v 53.512989 107.002663 41.242214
v 57.153469 107.002663 41.242214
v 54.351803 115.258232 42.993248
v 56.314644 115.258232 42.993248
v 56.314644 115.258232 41.766479
v 54.351803 115.258232 41.766479
v 61.165054 107.002663 48.448147
v 63.686966 107.002663 45.822685
v 61.925735 127.345657 47.604652
v 59.524139 107.002663 46.871952
v 62.046051 107.002663 44.246487
v 61.368042 115.258232 47.480026
v 62.727783 115.258232 46.064453
v 61.843056 115.258232 45.214615
v 60.483315 115.258232 46.630188
vt 0.230413 0.362285
vt 0.769583 0.362285
vt 0.500000 1.000000
vt 0.769583 0.362285
vt 0.230413 0.362285
vt 0.000000 0.000000
vt 1.000000 0.000000
vt 1.000000 0.000000
vt 0.000000 0.000000
vt 0.230413 0.362285
vt 0.769583 0.362285
vt 0.500000 1.000000
vt 0.769583 0.362285
vt 0.230413 0.362285
vt 0.000000 0.000000
vt 1.000000 0.000000
vt 1.000000 0.000000
vt 0.000000 0.000000
vt 0.230413 0.362285
vt 0.769583 0.362285
vt 0.500000 1.000000
vt 0.769583 0.362285
vt 0.230413 0.362285
vt 0.000000 0.000000
vt 1.000000 0.000000
vt 1.000000 0.000000
vt 0.000000 0.000000
vt 0.230413 0.362285
vt 0.769583 0.362285
vt 0.500000 1.000000
vt 0.769583 0.362285
vt 0.230413 0.362285
vt 0.000000 0.000000
vt 1.000000 0.000000
vt 1.000000 0.000000
vt 0.000000 0.000000
vt 0.230413 0.362285
vt 0.769583 0.362285
vt 0.500000 1.000000
vt 0.769583 0.362285
vt 0.230413 0.362285
vt 0.000000 0.000000
vt 1.000000 0.000000
vt 1.000000 0.000000
vt 0.000000 0.000000
vt 0.230413 0.362285
vt 0.769583 0.362285
vt 0.500000 1.000000
vt 0.769583 0.362285
vt 0.230413 0.362285
vt 0.000000 0.000000
vt 1.000000 0.000000
vt 1.000000 0.000000
vt 0.000000 0.000000
vt 0.230413 0.362285
vt 0.769583 0.362285
vt 0.500000 1.000000
vt 0.769583 0.362285
vt 0.230413 0.362285
vt 0.000000 0.000000
vt 1.000000 0.000000
vt 1.000000 0.000000
vt 0.000000 0.000000
vt 0.230413 0.362285
vt 0.769583 0.362285
vt 0.500000 1.000000
vt 0.769583 0.362285
vt 0.230413 0.362285
vt 0.000000 0.000000
vt 1.000000 0.000000
vt 1.000000 0.000000
vt 0.000000 0.000000
vn 0.844290 0.116977 0.522963
vn 0.844045 0.119402 0.522811
vn 0.850122 -0.003234 0.526575
vn -0.845510 0.104068 -0.523720
vn -0.849814 0.027092 -0.526386
vn -0.849776 0.028717 -0.526362
vn 0.522265 0.127752 -0.843160
vn 0.522441 0.125125 -0.843445
vn 0.526554 0.010001 -0.850083
vn -0.526032 0.045567 0.849243
vn -0.526069 0.044026 0.849302
vn -0.523473 0.108474 0.845109
vn 0.833944 0.194184 0.516555
vn 0.833944 0.194184 0.516555
vn 0.515907 0.200309 -0.832896
vn 0.515907 0.200309 -0.832897
vn -0.849929 -0.021568 -0.526456
vn -0.849929 -0.021568 -0.526456
vn -0.526577 0.002742 0.850123
vn -0.526577 0.002742 0.850123
vn -0.664586 0.134577 0.734993
vn -0.664436 0.136216 0.734827
vn -0.670589 0.017343 0.741626
vn 0.665765 0.120838 -0.736312
vn 0.669753 0.052632 -0.740717
vn 0.669716 0.053655 -0.740676
vn 0.735567 0.128795 0.665096
vn 0.735725 0.127141 0.665239
vn 0.741605 0.019558 0.670551
vn -0.740669 0.053740 -0.669717
vn -0.740708 0.052755 -0.669753
vn -0.736971 0.113213 -0.666376
vn -0.656878 0.201864 0.726472
vn -0.656878 0.201864 0.726472
vn 0.728373 0.189013 0.658594
vn 0.728373 0.189013 0.658594
vn 0.670624 0.013371 -0.741677
vn 0.670624 0.013371 -0.741677
vn -0.741619 0.018207 -0.670575
vn -0.741619 0.018207 -0.670575
vn -0.989063 0.065300 -0.132248
vn -0.989066 0.065266 -0.132248
vn -0.989781 0.053081 -0.132345
vn 0.989143 0.064060 0.132257
vn 0.989472 0.058667 0.132301
vn 0.989473 0.058651 0.132301
vn -0.132462 0.031966 0.990673
vn -0.132462 0.031989 0.990672
vn -0.131932 0.094730 0.986722
vn 0.132087 0.081782 -0.987859
vn 0.132087 0.081806 -0.987857
vn 0.132523 0.012617 -0.991100
vn -0.988725 0.070318 -0.132202
vn -0.988725 0.070318 -0.132202
vn -0.132528 0.006062 0.991161
vn -0.132528 0.006062 0.991161
vn 0.989600 0.056426 0.132318
vn 0.989600 0.056426 0.132318
vn 0.131728 0.109914 -0.985174
vn 0.131728 0.109914 -0.985174
vn -0.989063 0.065301 -0.132248
vn -0.989066 0.065266 -0.132249
vn -0.989781 0.053080 -0.132346
vn 0.989143 0.064060 0.132257
vn 0.989472 0.058667 0.132301
vn 0.989473 0.058652 0.132301
vn -0.132463 0.031966 0.990672
vn -0.132463 0.031989 0.990672
vn -0.131932 0.094729 0.986722
vn 0.132087 0.081782 -0.987859
vn 0.132087 0.081806 -0.987857
vn 0.132518 0.012617 -0.991100
vn -0.988725 0.070318 -0.132202
vn -0.988725 0.070318 -0.132202
vn -0.132530 0.006063 0.991161
vn -0.132530 0.006063 0.991160
vn 0.989600 0.056427 0.132318
vn 0.989600 0.056427 0.132318
vn 0.131729 0.109913 -0.985173
vn 0.131729 0.109913 -0.985173
vn -0.664586 0.134577 0.734992
vn -0.664436 0.136216 0.734826
vn -0.670589 0.017343 0.741626
vn 0.665769 0.120838 -0.736309
vn 0.669754 0.052632 -0.740716
vn 0.669717 0.053654 -0.740675
vn 0.735566 0.128794 0.665097
vn 0.735724 0.127140 0.665241
vn 0.741603 0.019558 0.670554
vn -0.740669 0.053740 -0.669718
vn -0.740708 0.052755 -0.669753
vn -0.736971 0.113213 -0.666376
vn -0.656879 0.201863 0.726472
vn -0.656879 0.201863 0.726472
vn 0.728373 0.189012 0.658595
vn 0.728373 0.189012 0.658595
vn 0.670624 0.013371 -0.741677
vn 0.670624 0.013371 -0.741677
vn -0.741618 0.018208 -0.670575
vn -0.741618 0.018208 -0.670575
vn 0.846789 0.088526 0.524511
vn 0.846771 0.088767 0.524499
vn 0.850122 -0.003375 0.526574
vn -0.845102 0.108563 -0.523467
vn -0.849933 0.021335 -0.526459
vn -0.849928 0.021592 -0.526456
vn 0.524181 0.095310 -0.846257
vn 0.524194 0.095043 -0.846278
vn 0.526549 0.010439 -0.850081
vn -0.526270 0.034257 0.849627
vn -0.526275 0.033977 0.849635
vn -0.523199 0.113153 0.844665
vn 0.843451 0.125075 0.522443
vn 0.843451 0.125075 0.522443
vn 0.522171 0.129115 -0.843011
vn 0.522171 0.129115 -0.843011
vn -0.850046 -0.013738 -0.526529
vn -0.850046 -0.013738 -0.526529
vn -0.526578 0.001747 0.850125
vn -0.526578 0.001747 0.850125
vn 0.000000 0.055822 0.998441
vn 0.000000 0.055822 0.998441
vn 0.000000 0.042172 0.999110
vn 0.000000 0.042172 -0.999110
vn 0.000000 0.055821 -0.998441
vn 0.000000 0.055821 -0.998441
vn 0.996050 0.088790 0.000000
vn 0.996050 0.088790 0.000000
vn 0.997727 0.067382 0.000000
vn -0.996050 0.088789 0.000000
vn -0.996050 0.088789 0.000000
vn -0.997727 0.067383 0.000000
vn 0.000000 0.063377 0.997990
vn 0.000000 0.063377 0.997990
vn 0.994878 0.101087 0.000000
vn 0.994878 0.101087 0.000000
vn 0.000000 0.063377 -0.997990
vn 0.000000 0.063377 -0.997990
vn -0.994878 0.101085 0.000000
vn -0.994878 0.101085 0.000000
vn 0.720861 0.030055 0.692428
vn 0.720823 0.031740 0.692392
vn 0.720600 -0.040383 0.692174
vn -0.714035 0.140500 -0.685867
vn -0.718443 0.087139 -0.690106
vn -0.718364 0.088386 -0.690030
vn 0.688301 0.113053 -0.716562
vn 0.688373 0.112134 -0.716637
vn 0.686253 0.136570 -0.714427
vn -0.690660 0.077493 0.719016
vn -0.690766 0.075500 0.719126
vn -0.692536 0.024519 0.720967
vn 0.719736 0.063377 0.691349
vn 0.719736 0.063377 0.691349
vn 0.689193 0.101087 -0.717491
vn 0.689193 0.101087 -0.717491
vn -0.719736 0.063377 -0.691349
vn -0.719736 0.063377 -0.691349
vn -0.689194 0.101085 0.717491
vn -0.689194 0.101085 0.717491
s 1
g pCube11
usemtl lambert3SG
f 6/1/1 7/2/2 3/3/3
s 2
f 3/3/4 8/4/5 9/5/6
s 3
f 7/2/7 8/4/8 3/3/9
s 4
f 9/5/10 6/1/11 3/3/12
s 1
f 1/6/13 2/7/14 7/2/2 6/1/1
s 3
f 2/7/15 5/8/16 8/4/8 7/2/7
s 2
f 9/5/6 8/4/5 5/8/17 4/9/18
s 4
f 4/9/19 1/6/20 6/1/11 9/5/10
s 5
f 15/10/21 16/11/22 12/12/23
s 6
f 12/12/24 17/13/25 18/14/26
s 7
f 16/11/27 17/13/28 12/12/29
s 8
f 18/14/30 15/10/31 12/12/32
s 5
f 10/15/33 11/16/34 16/11/22 15/10/21
s 7
f 11/16/35 14/17/36 17/13/28 16/11/27
s 6
f 18/14/26 17/13/25 14/17/37 13/18/38
s 8
f 13/18/39 10/15/40 15/10/31 18/14/30
s 9
f 24/19/41 25/20/42 21/21/43
s 10
f 21/21/44 26/22/45 27/23/46
s 11
f 25/20/47 26/22/48 21/21/49
s 12
f 27/23/50 24/19/51 21/21/52
s 9
f 19/24/53 20/25/54 25/20/42 24/19/41
s 11
f 20/25/55 23/26/56 26/22/48 25/20/47
s 10
f 27/23/46 26/22/45 23/26/57 22/27/58
s 12
f 22/27/59 19/24/60 24/19/51 27/23/50
s 13
f 33/28/61 34/29/62 30/30/63
s 14
f 30/30/64 35/31/65 36/32/66
s 15
f 34/29/67 35/31/68 30/30/69
s 16
f 36/32/70 33/28/71 30/30/72
s 13
f 28/33/73 29/34/74 34/29/62 33/28/61
s 15
f 29/34/75 32/35/76 35/31/68 34/29/67
s 14
f 36/32/66 35/31/65 32/35/77 31/36/78
s 16
f 31/36/79 28/33/80 33/28/71 36/32/70
s 17
f 42/37/81 43/38/82 39/39/83
s 18
f 39/39/84 44/40/85 45/41/86
s 19
f 43/38/87 44/40/88 39/39/89
s 20
f 45/41/90 42/37/91 39/39/92
s 17
f 37/42/93 38/43/94 43/38/82 42/37/81
s 19
f 38/43/95 41/44/96 44/40/88 43/38/87
s 18
f 45/41/86 44/40/85 41/44/97 40/45/98
s 20
f 40/45/99 37/42/100 42/37/91 45/41/90
s 21
f 51/46/101 52/47/102 48/48/103
s 22
f 48/48/104 53/49/105 54/50/106
s 23
f 52/47/107 53/49/108 48/48/109
s 24
f 54/50/110 51/46/111 48/48/112
s 21
f 46/51/113 47/52/114 52/47/102 51/46/101
s 23
f 47/52/115 50/53/116 53/49/108 52/47/107
s 22
f 54/50/106 53/49/105 50/53/117 49/54/118
s 24
f 49/54/119 46/51/120 51/46/111 54/50/110
s 25
f 60/55/121 61/56/122 57/57/123
s 26
f 57/57/124 62/58/125 63/59/126
s 27
f 61/56/127 62/58/128 57/57/129
s 28
f 63/59/130 60/55/131 57/57/132
s 25
f 55/60/133 56/61/134 61/56/122 60/55/121
s 27
f 56/61/135 59/62/136 62/58/128 61/56/127
s 26
f 63/59/126 62/58/125 59/62/137 58/63/138
s 28
f 58/63/139 55/60/140 60/55/131 63/59/130
s 29
f 69/64/141 70/65/142 66/66/143
s 30
f 66/66/144 71/67/145 72/68/146
s 31
f 70/65/147 71/67/148 66/66/149
s 32
f 72/68/150 69/64/151 66/66/152
s 29
f 64/69/153 65/70/154 70/65/142 69/64/141
s 31
f 65/70/155 68/71/156 71/67/148 70/65/147
s 30
f 72/68/146 71/67/145 68/71/157 67/72/158
s 32
f 67/72/159 64/69/160 69/64/151 72/68/150
