# This file uses meters as units for non-parametric coordinates.

mtllib stone01.mtl
g default
v -62.310364 33.862976 93.357117
v -98.907410 45.482361 63.295441
v -51.638855 72.501709 82.984924
v -43.433258 39.428543 88.447754
v -91.515961 48.581848 87.437439
v -59.575775 71.556999 92.398285
v -99.378265 56.048027 68.421478
v -93.976166 57.939987 59.801758
v -84.511536 35.565147 65.301514
v -56.087585 41.829453 103.218048
v -77.140137 52.350685 53.386108
v -91.068909 34.737854 78.734070
v -87.226440 67.674706 76.171295
v -64.363922 65.666267 97.457642
v -59.202820 70.293419 66.851044
v -68.711578 73.241554 69.407806
v -46.593231 35.209312 73.954132
v -92.739075 57.777885 84.390442
v -40.327271 51.101868 82.509155
v -79.586517 63.085709 57.111023
v -80.447601 65.696732 89.688263
v -86.685242 45.842751 54.505249
v -62.466675 38.661339 101.138885
v -73.461914 41.618378 56.248322
v -77.219513 72.202522 77.094635
v -46.746796 45.648682 68.793610
v -95.857483 61.020363 68.726410
v -54.028961 34.044914 89.992889
v -68.701233 35.561913 65.452118
v -95.676880 39.547836 66.124817
v -58.274475 50.622383 101.257141
v -85.348602 40.281624 56.907440
v -48.349731 39.375671 68.511139
vt 0.625519 0.662535
vt 0.919794 0.646424
vt 0.960720 0.568611
vt 0.646036 0.729998
vt 0.678487 0.778440
vt 0.921306 0.687213
vt 0.653501 0.664989
vt 0.990186 0.568810
vt 0.737846 0.657377
vt 0.668307 0.739814
vt 0.751198 0.718680
vt 0.706798 0.795456
vt 0.988841 0.686762
vt 0.707927 0.676566
vt 0.753862 0.662033
vt 0.946770 0.503360
vt 0.698277 0.710138
vt 0.734289 0.699011
vt 0.742271 0.634095
vt 0.797809 0.684130
vt 0.909157 0.537226
vt 0.791588 0.730079
vt 0.948855 0.541667
vt 0.697653 0.829321
vt 0.883875 0.686584
vt 0.689463 0.798609
vt 0.722684 0.808810
vt 0.932929 0.541650
vt 0.930962 0.571548
vt 0.905346 0.637540
vt 0.901747 0.581828
vt 0.679215 0.681295
vt 0.888439 0.645774
vt 0.926273 0.507546
vt 0.787185 0.662027
vt 0.691295 0.623447
vt 0.981824 0.523332
vt 0.655969 0.828523
vt 0.615721 0.807052
vt 0.617524 0.725315
vt 0.993315 0.636793
vt 0.853509 0.676440
vt 0.825979 0.702920
vn 0.622718 0.275271 -0.732426
vn 0.679393 0.163271 -0.715379
vn 0.303750 0.128322 -0.944071
vn 0.356492 0.728715 0.584711
vn 0.475023 0.302327 0.826409
vn 0.702640 0.285164 0.651904
vn -0.085651 0.953171 -0.290050
vn -0.333193 0.850219 -0.407565
vn -0.585049 0.796982 -0.150127
vn -0.274946 0.276324 0.920896
vn -0.621966 -0.169492 0.764481
vn -0.389186 -0.218264 0.894928
vn 0.443378 0.802231 0.399801
vn -0.536706 0.843177 0.031614
vn -0.990147 0.073184 0.119385
vn -0.967856 -0.164118 0.190578
vn -0.453051 0.553492 0.698850
vn -0.763712 0.357388 0.537604
vn -0.579477 0.690532 -0.432865
vn 0.087378 0.340847 -0.936049
vn -0.662323 -0.747967 -0.043281
vn -0.342051 -0.912789 -0.223196
vn -0.707463 -0.487375 0.511823
vn -0.400967 0.153743 -0.903100
vn -0.331406 -0.063365 -0.941358
vn -0.580851 -0.235208 -0.779288
vn 0.379809 -0.770158 0.512448
vn 0.745205 -0.114117 0.656998
vn 0.548059 -0.105293 0.829786
vn -0.140801 -0.843093 0.519007
vn -0.197938 -0.711516 -0.674215
vn -0.125078 -0.870234 -0.476496
vn -0.460960 -0.679638 -0.570621
vn 0.305053 -0.388044 -0.869692
vn 0.425276 -0.439962 -0.790932
vn 0.184585 -0.778642 -0.599704
vn -0.255165 0.954859 0.152104
vn 0.170031 0.898804 -0.404030
vn 0.777918 -0.550931 -0.302191
vn 0.786612 -0.617393 0.008228
vn 0.465261 -0.871957 0.152396
vn 0.799967 0.387747 -0.457935
vn 0.869434 0.209525 -0.447419
s 1
g stone
usemtl lambert2SG
f 15/41/1 26/2/2 11/3/3
s 2
f 6/4/4 31/5/5 19/39/6
f 16/7/7 20/36/8 27/9/9
f 14/10/10 5/11/11 23/12/12
f 19/39/6 3/40/13 6/4/4
f 13/14/14 16/7/7 27/9/9
f 5/11/11 7/15/15 2/35/16
f 21/17/17 18/18/18 5/11/11
f 7/15/15 8/19/19 2/35/16
s 1
f 20/8/20 15/41/1 11/3/3
s 2
f 30/20/21 9/43/22 12/22/23
s 1
f 8/37/24 22/23/25 2/16/26
s 2
f 28/24/27 4/38/28 10/26/29
f 12/22/23 1/27/30 23/12/12
s 1
f 32/28/31 9/21/32 30/34/33
f 24/29/34 33/30/35 29/31/36
s 2
f 23/12/12 5/11/11 12/22/23
f 12/22/23 5/11/11 2/35/16
f 21/17/17 13/14/14 18/18/18
f 6/4/4 16/7/7 25/32/37
f 6/4/4 14/10/10 31/5/5
f 6/4/4 25/32/37 21/17/17
f 16/7/7 6/4/4 3/40/13
f 20/36/8 16/7/7 15/1/38
f 3/40/13 15/1/38 16/7/7
s 1
f 17/33/39 4/25/40 28/42/41
f 3/13/42 19/6/43 26/2/2
s 2
f 13/14/14 27/9/9 18/18/18
f 18/18/18 7/15/15 5/11/11
f 10/26/29 4/38/28 19/39/6
s 1
f 17/33/39 19/6/43 4/25/40
s 2
f 20/36/8 8/19/19 27/9/9
s 1
f 8/37/24 20/8/20 22/23/25
s 2
f 21/17/17 5/11/11 14/10/10
f 6/4/4 21/17/17 14/10/10
s 1
f 20/8/20 11/3/3 22/23/25
f 26/2/2 24/29/34 11/3/3
s 2
f 31/5/5 14/10/10 23/12/12
f 23/12/12 1/27/30 10/26/29
s 1
f 22/23/25 11/3/3 24/29/34
f 24/29/34 29/31/36 32/28/31
s 2
f 21/17/17 25/32/37 13/14/14
f 13/14/14 25/32/37 16/7/7
s 1
f 26/2/2 33/30/35 24/29/34
f 26/2/2 19/6/43 17/33/39
s 2
f 18/18/18 27/9/9 7/15/15
f 8/19/19 7/15/15 27/9/9
f 28/24/27 10/26/29 1/27/30
s 1
f 32/28/31 29/31/36 9/21/32
f 3/13/42 26/2/2 15/41/1
f 32/28/31 30/34/33 2/16/26
s 2
f 30/20/21 12/22/23 2/35/16
f 31/5/5 10/26/29 19/39/6
f 31/5/5 23/12/12 10/26/29
s 1
f 32/28/31 22/23/25 24/29/34
f 22/23/25 32/28/31 2/16/26
f 33/30/35 17/33/39 29/31/36
f 26/2/2 17/33/39 33/30/35
