# This file uses meters as units for non-parametric coordinates.

mtllib stone03.mtl
g default
v -71.138229 82.442497 -87.847656
v -75.063141 97.275360 -86.639771
v -62.697449 97.147041 -99.907898
v -75.054794 98.244492 -100.774811
v -92.714493 84.554230 -91.901306
v -79.741348 82.446060 -109.384979
v -58.734283 87.495369 -90.440247
v -86.705444 81.911850 -91.260864
v -69.196152 87.774475 -112.799072
v -59.958282 95.013687 -86.920776
v -89.394699 81.859543 -95.224915
v -58.020218 88.678375 -105.235382
v -77.261429 87.931076 -113.259888
v -75.319717 93.392380 -110.644775
v -60.932571 92.069733 -84.087891
v -90.185684 92.879852 -87.563904
v -58.902115 91.138016 -107.633575
v -90.925613 82.793655 -102.908386
v -93.136185 91.194870 -92.370209
v -63.779953 90.121681 -111.372986
v -66.267746 82.386810 -108.392303
v -87.021530 86.906685 -83.404846
v -83.437637 93.578323 -110.464355
v -60.989456 82.104218 -98.684448
v -88.593475 85.285400 -85.007568
v -89.913330 82.082474 -101.589050
v -66.795822 93.416016 -82.297119
v -67.616196 86.929443 -83.367981
v -82.131393 89.813202 -112.714661
v -66.331833 94.097824 -108.971619
v -87.668961 92.231110 -105.245544
v -87.583267 83.260353 -107.390869
v -91.643860 91.125717 -86.784088
v -93.211700 90.363129 -89.460815
v -70.344894 98.481918 -92.728394
v -62.564072 97.576439 -92.513947
v -92.806671 90.623856 -98.738831
vt 0.637880 0.613289
vt 0.642643 0.640700
vt 0.786659 0.559386
vt 0.782982 0.632204
vt 0.714574 0.594820
vt 0.665190 0.599792
vt 0.837330 0.549218
vt 0.816881 0.546265
vt 0.849403 0.533868
vt 0.799008 0.587099
vt 0.812318 0.611191
vt 0.790839 0.602971
vt 0.820901 0.632204
vt 0.675801 0.616852
vt 0.729013 0.579701
vt 0.736957 0.607775
vt 0.735476 0.622273
vt 0.719049 0.600275
vt 0.812076 0.566302
vt 0.829999 0.595294
vt 0.794984 0.561586
vt 0.774834 0.608888
vt 0.767223 0.615411
vt 0.870006 0.548654
vt 0.805807 0.553342
vt 0.800567 0.530274
vt 0.849982 0.567707
vt 0.831896 0.564643
vt 0.848867 0.556984
vt 0.865332 0.575272
vt 0.736944 0.591317
vt 0.886058 0.552742
vt 0.882973 0.588054
vt 0.745469 0.591498
vt 0.721839 0.618364
vt 0.729481 0.587001
vt 0.888051 0.546769
vt 0.756371 0.629870
vt 0.751255 0.630648
vt 0.684844 0.565632
vt 0.660394 0.581722
vt 0.886326 0.608843
vt 0.875507 0.625626
vt 0.760424 0.603219
vt 0.644405 0.590937
vt 0.760966 0.587365
vt 0.765456 0.552956
vn 0.997877 0.007666 0.064674
vn 0.841802 -0.520972 -0.141269
vn 0.958376 -0.143527 -0.246813
vn -0.040044 0.096923 0.994486
vn -0.186397 0.118436 0.975310
vn 0.178788 -0.518469 0.836197
vn -0.069102 -0.382523 -0.921358
vn 0.130824 -0.221419 -0.966364
vn -0.127280 -0.588642 -0.798311
vn 0.531623 0.823618 -0.197563
vn 0.017464 0.997986 0.060991
vn 0.290351 0.939062 0.184008
vn -0.205023 0.499129 0.841924
vn 0.158972 -0.787799 0.595063
vn 0.416293 -0.808938 0.415114
vn 0.441481 -0.766896 0.465794
vn -0.228041 0.514955 0.826328
vn -0.850422 -0.494835 0.178662
vn -0.540066 -0.829186 0.144148
vn -0.272286 -0.752308 0.599911
vn 0.171318 0.835458 -0.522169
vn -0.173262 0.974297 -0.143962
vn 0.709694 0.552085 -0.437650
vn 0.781951 0.579793 0.228892
vn 0.467857 -0.506935 0.723966
vn -0.636797 -0.382360 -0.669545
vn 0.463353 0.006107 -0.886153
vn 0.420288 -0.606918 -0.674544
vn -0.358188 0.823009 -0.440860
vn 0.031480 0.751373 -0.659126
vn -0.403937 0.053913 -0.913197
vn -0.586989 0.757609 -0.285435
vn 0.731122 0.331720 0.596173
vn -0.157291 0.974287 0.161323
vn 0.174946 0.875319 0.450789
vn -0.927809 -0.028803 0.371943
vn -0.797192 -0.006784 -0.603688
vn -0.941493 -0.321175 -0.102167
vn -0.983773 -0.140558 -0.111509
vn -0.999657 0.012997 -0.022727
vn -0.167022 -0.887925 0.428595
vn -0.397574 0.913320 -0.088217
vn -0.662274 0.181435 0.726963
vn -0.341856 0.939700 -0.009948
vn -0.194058 -0.943263 -0.269437
vn -0.592098 -0.805617 0.020032
vn -0.704958 0.575545 -0.414467
s 1
g stone05
usemtl lambert2SG
f 7/46/1 24/47/2 12/3/3
s 2
f 27/41/4 22/5/5 28/6/6
s 1
f 13/7/7 9/8/8 6/9/9
f 3/10/10 35/11/11 36/12/12
s 2
f 2/40/13 22/5/5 27/41/4
f 1/14/14 24/2/15 7/1/16
f 2/40/13 16/15/17 22/5/5
f 5/16/18 11/17/19 25/18/20
s 1
f 30/19/21 4/20/22 3/10/10
f 17/21/23 3/10/10 12/3/3
f 12/3/3 3/10/10 10/22/24
s 2
f 28/6/6 7/1/16 15/45/25
s 1
f 32/24/26 13/7/7 6/9/9
f 20/25/27 12/3/3 21/26/28
f 30/19/21 3/10/10 17/21/23
f 23/27/29 14/28/30 29/29/31
f 31/30/32 29/29/31 32/24/26
f 29/29/31 14/28/30 9/8/8
f 30/19/21 17/21/23 20/25/27
f 10/22/24 15/23/33 7/46/1
f 2/13/34 27/4/35 36/12/12
f 35/11/11 2/13/34 36/12/12
f 24/47/2 21/26/28 12/3/3
s 2
f 25/18/20 34/31/36 5/16/18
s 1
f 10/22/24 7/46/1 12/3/3
f 18/32/37 31/30/32 32/24/26
f 20/25/27 17/21/23 12/3/3
s 2
f 18/38/38 11/17/19 5/16/18
f 37/44/39 5/16/18 19/34/40
s 1
f 4/20/22 35/11/11 3/10/10
f 9/8/8 14/28/30 20/25/27
f 21/26/28 9/8/8 20/25/27
s 2
f 1/14/14 7/1/16 28/6/6
s 1
f 36/12/12 10/22/24 3/10/10
s 2
f 11/17/19 8/35/41 25/18/20
f 1/14/14 25/18/20 8/35/41
s 1
f 14/28/30 23/27/29 4/20/22
f 19/42/42 4/20/22 31/30/32
s 2
f 22/5/5 33/36/43 25/18/20
f 28/6/6 22/5/5 25/18/20
s 1
f 6/9/9 9/8/8 21/26/28
f 10/22/24 27/4/35 15/23/33
s 2
f 15/45/25 27/41/4 28/6/6
f 37/44/39 18/38/38 5/16/18
f 28/6/6 25/18/20 1/14/14
s 1
f 16/43/44 4/20/22 19/42/42
f 29/29/31 9/8/8 13/7/7
f 29/29/31 13/7/7 32/24/26
s 2
f 33/36/43 34/31/36 25/18/20
s 1
f 30/19/21 20/25/27 14/28/30
f 30/19/21 14/28/30 4/20/22
f 26/37/45 32/24/26 6/9/9
s 2
f 33/36/43 22/5/5 16/15/17
f 33/36/43 16/15/17 34/31/36
f 11/17/19 18/38/38 26/39/46
s 1
f 32/24/26 26/37/45 18/32/37
f 16/43/44 2/13/34 4/20/22
f 23/27/29 31/30/32 4/20/22
f 29/29/31 31/30/32 23/27/29
s 2
f 34/31/36 19/34/40 5/16/18
f 34/31/36 16/15/17 19/34/40
s 1
f 35/11/11 4/20/22 2/13/34
f 27/4/35 10/22/24 36/12/12
f 31/30/32 37/33/47 19/42/42
f 37/33/47 31/30/32 18/32/37
